<?xml version="1.0" encoding="UTF-8" standalone="no"?>
<!-- Created with Inkscape (http://www.inkscape.org/) -->

<svg
   version="1.1"
   id="svg2"
   xml:space="preserve"
   width="891.4267"
   height="456.64001"
   viewBox="0 0 891.4267 456.64001"
   sodipodi:docname="aesa-blanco.eps"
   xmlns:inkscape="http://www.inkscape.org/namespaces/inkscape"
   xmlns:sodipodi="http://sodipodi.sourceforge.net/DTD/sodipodi-0.dtd"
   xmlns="http://www.w3.org/2000/svg"
   xmlns:svg="http://www.w3.org/2000/svg"><defs
     id="defs6" /><sodipodi:namedview
     id="namedview4"
     pagecolor="#ffffff"
     bordercolor="#666666"
     borderopacity="1.0"
     inkscape:pageshadow="2"
     inkscape:pageopacity="0.0"
     inkscape:pagecheckerboard="0" /><g
     id="g8"
     inkscape:groupmode="layer"
     inkscape:label="ink_ext_XXXXXX"
     transform="matrix(1.3333333,0,0,-1.3333333,0,456.64)"><g
       id="g10"
       transform="scale(0.1)"><path
         d="m 840.277,2986.13 h -5.8 L 635.27,2085.12 H 1051.1 Z M 0,1302.5 577.504,3387.57 H 1152.14 L 1718.22,1302.5 h -459.26 l -115.42,462.17 H 548.668 L 430.16,1302.5 H 0"
         style="fill:#ffffff;fill-opacity:1;fill-rule:nonzero;stroke:none"
         id="path12" /><path
         d="M 2002.6,1302.5 V 3387.57 H 3140.41 V 3066.89 H 2438.59 V 2553 h 647.02 v -320.56 h -647.02 v -609.27 h 724.95 V 1302.5 H 2002.6"
         style="fill:#ffffff;fill-opacity:1;fill-rule:nonzero;stroke:none"
         id="path14" /><path
         d="m 4083.9,1270.4 c -539.88,0 -641.01,317.68 -617.77,678.55 h 435.83 c 0,-199.27 8.7,-366.57 248.45,-366.57 147.3,0 219.55,95.21 219.55,236.62 0,375.38 -877.86,398.67 -877.86,1019.38 0,326.5 155.72,586.41 687.19,586.41 424.47,0 635.47,-190.63 606.42,-626.76 h -424.47 c 0,155.89 -26.05,314.8 -202.13,314.8 -141.69,0 -225.19,-78.09 -225.19,-222.44 0,-395.62 877.62,-360.89 877.62,-1016.53 0,-539.98 -395.36,-603.46 -727.64,-603.46"
         style="fill:#ffffff;fill-opacity:1;fill-rule:nonzero;stroke:none"
         id="path16" /><path
         d="m 5807.93,2986.13 h -5.8 l -199.2,-901.01 h 415.65 z M 4967.51,1302.5 5545.03,3387.57 h 574.71 L 6685.71,1302.5 h -459.04 l -115.53,461.94 H 5516.15 L 5397.83,1302.5 h -430.32"
         style="fill:#ffffff;fill-opacity:1;fill-rule:nonzero;stroke:none"
         id="path18" /><path
         d="M 6593.19,945.371 H 83.0039 V 1125.06 H 6593.19 V 945.371"
         style="fill:#ffffff;fill-opacity:1;fill-rule:nonzero;stroke:none"
         id="path20" /><path
         d="M 6593.19,630.199 H 83.0039 V 809.73 H 6593.19 V 630.199"
         style="fill:#ffffff;fill-opacity:1;fill-rule:nonzero;stroke:none"
         id="path22" /><path
         d="M 6593.19,315.16 H 83.0039 V 494.898 H 6593.19 V 315.16"
         style="fill:#ffffff;fill-opacity:1;fill-rule:nonzero;stroke:none"
         id="path24" /><path
         d="M 6593.19,0 H 83.0039 V 179.859 H 6593.19 V 0"
         style="fill:#ffffff;fill-opacity:1;fill-rule:nonzero;stroke:none"
         id="path26" /></g></g></svg>
